<svg width="64" height="64" viewBox="0 0 64 64" fill="none" xmlns="http://www.w3.org/2000/svg">
<g clip-path="url(#clip0_131_124)">
<path d="M64.0002 32.1961C64.0002 14.4121 49.6722 -0.00390625 32.0002 -0.00390625C14.3202 9.37502e-05 -0.0078125 14.4121 -0.0078125 32.2001C-0.0078125 48.2681 11.6962 61.5881 26.9922 64.0041V41.5041H18.8722V32.2001H27.0002V25.1001C27.0002 17.0321 31.7802 12.5761 39.0882 12.5761C42.5922 12.5761 46.2522 13.2041 46.2522 13.2041V21.1241H42.2162C38.2442 21.1241 37.0042 23.6081 37.0042 26.1561V32.1961H45.8762L44.4602 41.5001H37.0002V64.0001C52.2962 61.5841 64.0002 48.2641 64.0002 32.1961Z" fill="black"/>
</g>
<defs>
<clipPath id="clip0_131_124">
<rect width="64" height="64" fill="white"/>
</clipPath>
</defs>
</svg>
