<svg width="32" height="24" viewBox="0 0 32 24" fill="none" xmlns="http://www.w3.org/2000/svg">
<path d="M0.636364 24V17.8636C0.636364 16 0.965909 14.0227 1.625 11.9318C2.30682 9.81818 3.28409 7.78409 4.55682 5.82955C5.85227 3.85227 7.40909 2.13636 9.22727 0.681816L13.5909 4.22727C12.1591 6.27273 10.9091 8.40909 9.84091 10.6364C8.79545 12.8409 8.27273 15.2045 8.27273 17.7273V24H0.636364ZM18.0909 24V17.8636C18.0909 16 18.4205 14.0227 19.0795 11.9318C19.7614 9.81818 20.7386 7.78409 22.0114 5.82955C23.3068 3.85227 24.8636 2.13636 26.6818 0.681816L31.0455 4.22727C29.6136 6.27273 28.3636 8.40909 27.2955 10.6364C26.25 12.8409 25.7273 15.2045 25.7273 17.7273V24H18.0909Z" fill="#EEEEEE"/>
</svg>
