<svg width="31" height="24" viewBox="0 0 31 24" fill="none" xmlns="http://www.w3.org/2000/svg">
<path d="M13.4545 0.181816V6.31818C13.4545 8.18181 13.1136 10.1705 12.4318 12.2841C11.7727 14.375 10.7955 16.4091 9.5 18.3864C8.22727 20.3409 6.68182 22.0455 4.86364 23.5L0.5 19.9545C1.93182 17.9091 3.17045 15.7841 4.21591 13.5795C5.28409 11.3523 5.81818 8.97727 5.81818 6.45455V0.181816H13.4545ZM30.9091 0.181816V6.31818C30.9091 8.18181 30.5682 10.1705 29.8864 12.2841C29.2273 14.375 28.25 16.4091 26.9545 18.3864C25.6818 20.3409 24.1364 22.0455 22.3182 23.5L17.9545 19.9545C19.3864 17.9091 20.625 15.7841 21.6705 13.5795C22.7386 11.3523 23.2727 8.97727 23.2727 6.45455V0.181816H30.9091Z" fill="#EEEEEE"/>
</svg>
